# ProBuilder 5.0.7
# https://unity3d.com/unity/features/worldbuilding/probuilder
# 5/26/2024 7:01:15 PM

mtllib ./Pipe.mtl
o Pipe

g Pipe
v -2.480287 -2.5 0.313333
v -2.5 -2.5 0
v -2.480287 2.5 0.313333
v -2.5 2.5 0
v -2.45 -2.5 0
v -2.430681 -2.5 0.3070664
v -2.45 2.5 0
v -2.430681 2.5 0.3070664
v -2.421458 -2.5 0.6217247
v -2.421458 2.5 0.6217247
v -2.373029 -2.5 0.6092902
v -2.373029 2.5 0.6092902
v -2.324441 -2.5 0.9203113
v -2.324441 2.5 0.9203113
v -2.277952 -2.5 0.9019051
v -2.277952 2.5 0.9019051
v -2.190767 -2.5 1.204384
v -2.190767 2.5 1.204384
v -2.146951 -2.5 1.180296
v -2.146951 2.5 1.180296
v -2.022542 -2.5 1.469463
v -2.022542 2.5 1.469463
v -1.982092 -2.5 1.440074
v -1.982092 2.5 1.440074
v -1.822422 -2.5 1.711368
v -1.822422 2.5 1.711368
v -1.785973 -2.5 1.67714
v -1.785973 2.5 1.67714
v -1.59356 -2.5 1.926283
v -1.59356 2.5 1.926283
v -1.561689 -2.5 1.887757
v -1.561689 2.5 1.887757
v -1.339567 -2.5 2.11082
v -1.339567 2.5 2.11082
v -1.312776 -2.5 2.068603
v -1.312776 2.5 2.068603
v -1.064448 -2.5 2.262068
v -1.064448 2.5 2.262068
v -1.043159 -2.5 2.216826
v -1.043159 2.5 2.216826
v -0.7725424 -2.5 2.377641
v -0.7725424 2.5 2.377641
v -0.7570916 -2.5 2.330089
v -0.7570916 2.5 2.330089
v -0.4684533 -2.5 2.455718
v -0.4684533 2.5 2.455718
v -0.4590843 -2.5 2.406604
v -0.4590843 2.5 2.406604
v -0.1569763 -2.5 2.495067
v -0.1569763 2.5 2.495067
v -0.1538367 -2.5 2.445166
v -0.1538367 2.5 2.445166
v 0.1569762 -2.5 2.495067
v 0.1569762 2.5 2.495067
v 0.1538366 -2.5 2.445166
v 0.1538366 2.5 2.445166
v 0.4684533 -2.5 2.455718
v 0.4684533 2.5 2.455718
v 0.4590842 -2.5 2.406604
v 0.4590842 2.5 2.406604
v 0.7725424 -2.5 2.377641
v 0.7725424 2.5 2.377641
v 0.7570915 -2.5 2.330089
v 0.7570915 2.5 2.330089
v 1.064448 -2.5 2.262068
v 1.064448 2.5 2.262068
v 1.043159 -2.5 2.216826
v 1.043159 2.5 2.216826
v 1.339567 -2.5 2.11082
v 1.339567 2.5 2.11082
v 1.312775 -2.5 2.068604
v 1.312775 2.5 2.068604
v 1.59356 -2.5 1.926283
v 1.59356 2.5 1.926283
v 1.561689 -2.5 1.887757
v 1.561689 2.5 1.887757
v 1.822422 -2.5 1.711368
v 1.822422 2.5 1.711368
v 1.785973 -2.5 1.67714
v 1.785973 2.5 1.67714
v 2.022543 -2.5 1.469463
v 2.022543 2.5 1.469463
v 1.982092 -2.5 1.440074
v 1.982092 2.5 1.440074
v 2.190767 -2.5 1.204384
v 2.190767 2.5 1.204384
v 2.146951 -2.5 1.180297
v 2.146951 2.5 1.180297
v 2.324441 -2.5 0.9203115
v 2.324441 2.5 0.9203115
v 2.277952 -2.5 0.9019053
v 2.277952 2.5 0.9019053
v 2.421458 -2.5 0.6217248
v 2.421458 2.5 0.6217248
v 2.373029 -2.5 0.6092903
v 2.373029 2.5 0.6092903
v 2.480287 -2.5 0.313333
v 2.480287 2.5 0.313333
v 2.430681 -2.5 0.3070664
v 2.430681 2.5 0.3070664
v 2.5 -2.5 -2.185569E-07
v 2.5 2.5 -2.185569E-07
v 2.45 -2.5 -2.141858E-07
v 2.45 2.5 -2.141858E-07
v 2.480287 -2.5 -0.3133328
v 2.480287 2.5 -0.3133328
v 2.430681 -2.5 -0.3070662
v 2.430681 2.5 -0.3070662
v 2.421458 -2.5 -0.6217246
v 2.421458 2.5 -0.6217246
v 2.373029 -2.5 -0.6092901
v 2.373029 2.5 -0.6092901
v 2.324441 -2.5 -0.9203113
v 2.324441 2.5 -0.9203113
v 2.277952 -2.5 -0.9019051
v 2.277952 2.5 -0.9019051
v 2.190767 -2.5 -1.204384
v 2.190767 2.5 -1.204384
v 2.146951 -2.5 -1.180297
v 2.146951 2.5 -1.180297
v 2.022543 -2.5 -1.469463
v 2.022543 2.5 -1.469463
v 1.982092 -2.5 -1.440074
v 1.982092 2.5 -1.440074
v 1.822422 -2.5 -1.711368
v 1.822422 2.5 -1.711368
v 1.785973 -2.5 -1.67714
v 1.785973 2.5 -1.67714
v 1.59356 -2.5 -1.926283
v 1.59356 2.5 -1.926283
v 1.561689 -2.5 -1.887757
v 1.561689 2.5 -1.887757
v 1.339566 -2.5 -2.11082
v 1.339566 2.5 -2.11082
v 1.312775 -2.5 -2.068604
v 1.312775 2.5 -2.068604
v 1.064449 -2.5 -2.262068
v 1.064449 2.5 -2.262068
v 1.04316 -2.5 -2.216826
v 1.04316 2.5 -2.216826
v 0.7725427 -2.5 -2.377641
v 0.7725427 2.5 -2.377641
v 0.7570919 -2.5 -2.330088
v 0.7570919 2.5 -2.330088
v 0.4684523 -2.5 -2.455718
v 0.4684523 2.5 -2.455718
v 0.4590832 -2.5 -2.406604
v 0.4590832 2.5 -2.406604
v 0.1569763 -2.5 -2.495067
v 0.1569763 2.5 -2.495067
v 0.1538368 -2.5 -2.445166
v 0.1538368 2.5 -2.445166
v -0.1569764 -2.5 -2.495067
v -0.1569764 2.5 -2.495067
v -0.1538369 -2.5 -2.445166
v -0.1538369 2.5 -2.445166
v -0.4684523 -2.5 -2.455718
v -0.4684523 2.5 -2.455718
v -0.4590833 -2.5 -2.406604
v -0.4590833 2.5 -2.406604
v -0.7725428 -2.5 -2.377641
v -0.7725428 2.5 -2.377641
v -0.757092 -2.5 -2.330088
v -0.757092 2.5 -2.330088
v -1.064449 -2.5 -2.262068
v -1.064449 2.5 -2.262068
v -1.04316 -2.5 -2.216826
v -1.04316 2.5 -2.216826
v -1.339567 -2.5 -2.11082
v -1.339567 2.5 -2.11082
v -1.312775 -2.5 -2.068604
v -1.312775 2.5 -2.068604
v -1.593561 -2.5 -1.926283
v -1.593561 2.5 -1.926283
v -1.561689 -2.5 -1.887757
v -1.561689 2.5 -1.887757
v -1.822421 -2.5 -1.711368
v -1.822421 2.5 -1.711368
v -1.785973 -2.5 -1.677141
v -1.785973 2.5 -1.677141
v -2.022542 -2.5 -1.469463
v -2.022542 2.5 -1.469463
v -1.982092 -2.5 -1.440074
v -1.982092 2.5 -1.440074
v -2.190767 -2.5 -1.204384
v -2.190767 2.5 -1.204384
v -2.146951 -2.5 -1.180297
v -2.146951 2.5 -1.180297
v -2.324441 -2.5 -0.9203113
v -2.324441 2.5 -0.9203113
v -2.277952 -2.5 -0.9019051
v -2.277952 2.5 -0.9019051
v -2.421458 -2.5 -0.6217245
v -2.421458 2.5 -0.6217245
v -2.373029 -2.5 -0.6092901
v -2.373029 2.5 -0.6092901
v -2.480287 -2.5 -0.3133339
v -2.480287 2.5 -0.3133339
v -2.430681 -2.5 -0.3070672
v -2.430681 2.5 -0.3070672

vt 0.1569769 -2.5
vt -0.1569757 -2.5
vt 0.1569769 2.5
vt -0.1569757 2.5
vt 0.1538374 -2.5
vt -0.1538361 -2.5
vt 0.1538374 2.5
vt -0.1538361 2.5
vt -2.5 0
vt -2.480287 0.313333
vt -2.45 0
vt -2.430681 0.3070664
vt 2.480287 0.313333
vt 2.5 0
vt 2.430681 0.3070664
vt 2.45 0
vt -2.421458 0.6217247
vt -2.373029 0.6092902
vt 2.421458 0.6217247
vt 2.373029 0.6092902
vt -2.324441 0.9203113
vt -2.277952 0.9019051
vt 2.324441 0.9203113
vt 2.277952 0.9019051
vt -2.190767 1.204384
vt -2.146951 1.180296
vt 2.190767 1.204384
vt 2.146951 1.180296
vt -2.022542 1.469463
vt -1.982092 1.440074
vt 2.022542 1.469463
vt 1.982092 1.440074
vt -1.822422 1.711368
vt -1.785973 1.67714
vt 1.822422 1.711368
vt 1.785973 1.67714
vt -1.59356 1.926283
vt -1.561689 1.887757
vt 1.59356 1.926283
vt 1.561689 1.887757
vt -1.339567 2.11082
vt -1.312776 2.068603
vt 1.339567 2.11082
vt 1.312776 2.068603
vt -1.064448 2.262068
vt -1.043159 2.216826
vt 1.064448 2.262068
vt 1.043159 2.216826
vt -0.7725424 2.377641
vt -0.7570916 2.330089
vt 0.7725424 2.377641
vt 0.7570916 2.330089
vt -0.4684533 2.455718
vt -0.4590843 2.406604
vt 0.4684533 2.455718
vt 0.4590843 2.406604
vt -0.1569763 2.495067
vt -0.1538367 2.445166
vt 0.1569763 2.495067
vt 0.1538367 2.445166
vt 2.480287 -0.3133328
vt 2.430681 -0.3070662
vt -2.480287 -0.3133328
vt -2.430681 -0.3070662
vt 2.421458 -0.6217246
vt 2.373029 -0.6092901
vt -2.421458 -0.6217246
vt -2.373029 -0.6092901
vt 2.324441 -0.9203113
vt 2.277952 -0.9019051
vt -2.324441 -0.9203113
vt -2.277952 -0.9019051
vt 2.190767 -1.204384
vt 2.146951 -1.180297
vt -2.190767 -1.204384
vt -2.146951 -1.180297
vt 2.022543 -1.469463
vt 1.982092 -1.440074
vt -2.022543 -1.469463
vt -1.982092 -1.440074
vt 1.822422 -1.711368
vt 1.785973 -1.67714
vt -1.822422 -1.711368
vt -1.785973 -1.67714
vt 1.59356 -1.926283
vt 1.561689 -1.887757
vt -1.59356 -1.926283
vt -1.561689 -1.887757
vt 1.339566 -2.11082
vt 1.312775 -2.068604
vt -1.339566 -2.11082
vt -1.312775 -2.068604
vt 1.064449 -2.262068
vt 1.04316 -2.216826
vt -1.064449 -2.262068
vt -1.04316 -2.216826
vt 0.7725427 -2.377641
vt 0.7570919 -2.330088
vt -0.7725427 -2.377641
vt -0.7570919 -2.330088
vt 0.4684523 -2.455718
vt 0.4590832 -2.406604
vt -0.4684523 -2.455718
vt -0.4590832 -2.406604
vt 0.1569763 -2.495067
vt 0.1538368 -2.445166
vt -0.1569763 -2.495067
vt -0.1538368 -2.445166

vn -0.9921147 0 0.1253331
vn -1 0 -2.911472E-07
vn 1 0 2.986125E-07
vn 0.9921147 0 -0.1253333
vn -0.9685831 0 0.2486901
vn 0.9685832 0 -0.2486898
vn -0.9297764 0 0.3681246
vn 0.9297765 0 -0.3681245
vn -0.8763067 0 0.4817536
vn 0.8763067 0 -0.4817536
vn -0.809017 0 0.5877852
vn 0.809017 0 -0.5877853
vn -0.7289687 0 0.6845471
vn 0.7289686 0 -0.6845472
vn -0.6374239 0 0.7705134
vn 0.6374241 0 -0.7705132
vn -0.5358269 0 0.8443279
vn 0.5358269 0 -0.8443279
vn -0.4257796 0 0.9048269
vn 0.4257795 0 -0.9048269
vn -0.3090168 0 0.9510566
vn 0.3090166 0 -0.9510567
vn -0.1873812 0 0.9822873
vn 0.1873814 0 -0.9822873
vn -0.06279073 0 0.9980267
vn 0.06279105 0 -0.9980267
vn 0.06279072 0 0.9980267
vn -0.06279104 0 -0.9980267
vn 0.1873812 0 0.9822873
vn -0.1873814 0 -0.9822873
vn 0.3090168 0 0.9510566
vn -0.3090167 0 -0.9510567
vn 0.4257792 0 0.9048271
vn -0.425779 0 -0.9048272
vn 0.5358267 0 0.8443279
vn -0.5358267 0 -0.844328
vn 0.6374243 0 0.7705129
vn -0.6374245 0 -0.7705128
vn 0.7289686 0 0.6845471
vn -0.7289686 0 -0.6845472
vn 0.8090169 0 0.5877854
vn -0.8090169 0 -0.5877854
vn 0.8763067 0 0.4817536
vn -0.8763067 0 -0.4817537
vn 0.9297764 0 0.3681248
vn -0.9297764 0 -0.3681247
vn 0.9685832 0 0.24869
vn -0.9685832 0 -0.2486897
vn 0.9921147 0 0.125333
vn -0.9921147 0 -0.1253332
vn 0 -1 0
vn 0 1 0

usemtl Lit
f 3/3/1 4/4/2 2/2/2 1/1/1
f 7/7/3 8/8/4 6/6/4 5/5/3
f 10/3/5 3/4/1 1/2/1 9/1/5
f 8/7/4 12/8/6 11/6/6 6/5/4
f 14/3/7 10/4/5 9/2/5 13/1/7
f 12/7/6 16/8/8 15/6/8 11/5/6
f 18/3/9 14/4/7 13/2/7 17/1/9
f 16/7/8 20/8/10 19/6/10 15/5/8
f 22/3/11 18/4/9 17/2/9 21/1/11
f 20/7/10 24/8/12 23/6/12 19/5/10
f 26/3/13 22/4/11 21/2/11 25/1/13
f 24/7/12 28/8/14 27/6/14 23/5/12
f 30/3/15 26/4/13 25/2/13 29/1/15
f 28/7/14 32/8/16 31/6/16 27/5/14
f 34/3/17 30/4/15 29/2/15 33/1/17
f 32/7/16 36/8/18 35/6/18 31/5/16
f 38/3/19 34/4/17 33/2/17 37/1/19
f 36/7/18 40/8/20 39/6/20 35/5/18
f 42/3/21 38/4/19 37/2/19 41/1/21
f 40/7/20 44/8/22 43/6/22 39/5/20
f 46/3/23 42/4/21 41/2/21 45/1/23
f 44/7/22 48/8/24 47/6/24 43/5/22
f 50/3/25 46/4/23 45/2/23 49/1/25
f 48/7/24 52/8/26 51/6/26 47/5/24
f 54/3/27 50/4/25 49/2/25 53/1/27
f 52/7/26 56/8/28 55/6/28 51/5/26
f 58/3/29 54/4/27 53/2/27 57/1/29
f 56/7/28 60/8/30 59/6/30 55/5/28
f 62/3/31 58/4/29 57/2/29 61/1/31
f 60/7/30 64/8/32 63/6/32 59/5/30
f 66/3/33 62/4/31 61/2/31 65/1/33
f 64/7/32 68/8/34 67/6/34 63/5/32
f 70/3/35 66/4/33 65/2/33 69/1/35
f 68/7/34 72/8/36 71/6/36 67/5/34
f 74/3/37 70/4/35 69/2/35 73/1/37
f 72/7/36 76/8/38 75/6/38 71/5/36
f 78/3/39 74/4/37 73/2/37 77/1/39
f 76/7/38 80/8/40 79/6/40 75/5/38
f 82/3/41 78/4/39 77/2/39 81/1/41
f 80/7/40 84/8/42 83/6/42 79/5/40
f 86/3/43 82/4/41 81/2/41 85/1/43
f 84/7/42 88/8/44 87/6/44 83/5/42
f 90/3/45 86/4/43 85/2/43 89/1/45
f 88/7/44 92/8/46 91/6/46 87/5/44
f 94/3/47 90/4/45 89/2/45 93/1/47
f 92/7/46 96/8/48 95/6/48 91/5/46
f 98/3/49 94/4/47 93/2/47 97/1/49
f 96/7/48 100/8/50 99/6/50 95/5/48
f 102/3/3 98/4/49 97/2/49 101/1/3
f 100/7/50 104/8/2 103/6/2 99/5/50
f 106/3/4 102/4/3 101/2/3 105/1/4
f 104/7/2 108/8/1 107/6/1 103/5/2
f 110/3/6 106/4/4 105/2/4 109/1/6
f 108/7/1 112/8/5 111/6/5 107/5/1
f 114/3/8 110/4/6 109/2/6 113/1/8
f 112/7/5 116/8/7 115/6/7 111/5/5
f 118/3/10 114/4/8 113/2/8 117/1/10
f 116/7/7 120/8/9 119/6/9 115/5/7
f 122/3/12 118/4/10 117/2/10 121/1/12
f 120/7/9 124/8/11 123/6/11 119/5/9
f 126/3/14 122/4/12 121/2/12 125/1/14
f 124/7/11 128/8/13 127/6/13 123/5/11
f 130/3/16 126/4/14 125/2/14 129/1/16
f 128/7/13 132/8/15 131/6/15 127/5/13
f 134/3/18 130/4/16 129/2/16 133/1/18
f 132/7/15 136/8/17 135/6/17 131/5/15
f 138/3/20 134/4/18 133/2/18 137/1/20
f 136/7/17 140/8/19 139/6/19 135/5/17
f 142/3/22 138/4/20 137/2/20 141/1/22
f 140/7/19 144/8/21 143/6/21 139/5/19
f 146/3/24 142/4/22 141/2/22 145/1/24
f 144/7/21 148/8/23 147/6/23 143/5/21
f 150/3/26 146/4/24 145/2/24 149/1/26
f 148/7/23 152/8/25 151/6/25 147/5/23
f 154/3/28 150/4/26 149/2/26 153/1/28
f 152/7/25 156/8/27 155/6/27 151/5/25
f 158/3/30 154/4/28 153/2/28 157/1/30
f 156/7/27 160/8/29 159/6/29 155/5/27
f 162/3/32 158/4/30 157/2/30 161/1/32
f 160/7/29 164/8/31 163/6/31 159/5/29
f 166/3/34 162/4/32 161/2/32 165/1/34
f 164/7/31 168/8/33 167/6/33 163/5/31
f 170/3/36 166/4/34 165/2/34 169/1/36
f 168/7/33 172/8/35 171/6/35 167/5/33
f 174/3/38 170/4/36 169/2/36 173/1/38
f 172/7/35 176/8/37 175/6/37 171/5/35
f 178/3/40 174/4/38 173/2/38 177/1/40
f 176/7/37 180/8/39 179/6/39 175/5/37
f 182/3/42 178/4/40 177/2/40 181/1/42
f 180/7/39 184/8/41 183/6/41 179/5/39
f 186/3/44 182/4/42 181/2/42 185/1/44
f 184/7/41 188/8/43 187/6/43 183/5/41
f 190/3/46 186/4/44 185/2/44 189/1/46
f 188/7/43 192/8/45 191/6/45 187/5/43
f 194/3/48 190/4/46 189/2/46 193/1/48
f 192/7/45 196/8/47 195/6/47 191/5/45
f 198/3/50 194/4/48 193/2/48 197/1/50
f 196/7/47 200/8/49 199/6/49 195/5/47
f 4/3/2 198/4/50 197/2/50 2/1/2
f 200/7/49 7/8/3 5/6/3 199/5/49
f 5/11/51 6/12/51 1/10/51 2/9/51
f 8/15/52 7/16/52 4/14/52 3/13/52
f 6/12/51 11/18/51 9/17/51 1/10/51
f 12/20/52 8/15/52 3/13/52 10/19/52
f 11/18/51 15/22/51 13/21/51 9/17/51
f 16/24/52 12/20/52 10/19/52 14/23/52
f 15/22/51 19/26/51 17/25/51 13/21/51
f 20/28/52 16/24/52 14/23/52 18/27/52
f 19/26/51 23/30/51 21/29/51 17/25/51
f 24/32/52 20/28/52 18/27/52 22/31/52
f 23/30/51 27/34/51 25/33/51 21/29/51
f 28/36/52 24/32/52 22/31/52 26/35/52
f 27/34/51 31/38/51 29/37/51 25/33/51
f 32/40/52 28/36/52 26/35/52 30/39/52
f 31/38/51 35/42/51 33/41/51 29/37/51
f 36/44/52 32/40/52 30/39/52 34/43/52
f 35/42/51 39/46/51 37/45/51 33/41/51
f 40/48/52 36/44/52 34/43/52 38/47/52
f 39/46/51 43/50/51 41/49/51 37/45/51
f 44/52/52 40/48/52 38/47/52 42/51/52
f 43/50/51 47/54/51 45/53/51 41/49/51
f 48/56/52 44/52/52 42/51/52 46/55/52
f 47/54/51 51/58/51 49/57/51 45/53/51
f 52/60/52 48/56/52 46/55/52 50/59/52
f 51/58/51 55/60/51 53/59/51 49/57/51
f 56/58/52 52/60/52 50/59/52 54/57/52
f 55/60/51 59/56/51 57/55/51 53/59/51
f 60/54/52 56/58/52 54/57/52 58/53/52
f 59/56/51 63/52/51 61/51/51 57/55/51
f 64/50/52 60/54/52 58/53/52 62/49/52
f 63/52/51 67/48/51 65/47/51 61/51/51
f 68/46/52 64/50/52 62/49/52 66/45/52
f 67/48/51 71/44/51 69/43/51 65/47/51
f 72/42/52 68/46/52 66/45/52 70/41/52
f 71/44/51 75/40/51 73/39/51 69/43/51
f 76/38/52 72/42/52 70/41/52 74/37/52
f 75/40/51 79/36/51 77/35/51 73/39/51
f 80/34/52 76/38/52 74/37/52 78/33/52
f 79/36/51 83/32/51 81/31/51 77/35/51
f 84/30/52 80/34/52 78/33/52 82/29/52
f 83/32/51 87/28/51 85/27/51 81/31/51
f 88/26/52 84/30/52 82/29/52 86/25/52
f 87/28/51 91/24/51 89/23/51 85/27/51
f 92/22/52 88/26/52 86/25/52 90/21/52
f 91/24/51 95/20/51 93/19/51 89/23/51
f 96/18/52 92/22/52 90/21/52 94/17/52
f 95/20/51 99/15/51 97/13/51 93/19/51
f 100/12/52 96/18/52 94/17/52 98/10/52
f 99/15/51 103/16/51 101/14/51 97/13/51
f 104/11/52 100/12/52 98/10/52 102/9/52
f 103/16/51 107/62/51 105/61/51 101/14/51
f 108/64/52 104/11/52 102/9/52 106/63/52
f 107/62/51 111/66/51 109/65/51 105/61/51
f 112/68/52 108/64/52 106/63/52 110/67/52
f 111/66/51 115/70/51 113/69/51 109/65/51
f 116/72/52 112/68/52 110/67/52 114/71/52
f 115/70/51 119/74/51 117/73/51 113/69/51
f 120/76/52 116/72/52 114/71/52 118/75/52
f 119/74/51 123/78/51 121/77/51 117/73/51
f 124/80/52 120/76/52 118/75/52 122/79/52
f 123/78/51 127/82/51 125/81/51 121/77/51
f 128/84/52 124/80/52 122/79/52 126/83/52
f 127/82/51 131/86/51 129/85/51 125/81/51
f 132/88/52 128/84/52 126/83/52 130/87/52
f 131/86/51 135/90/51 133/89/51 129/85/51
f 136/92/52 132/88/52 130/87/52 134/91/52
f 135/90/51 139/94/51 137/93/51 133/89/51
f 140/96/52 136/92/52 134/91/52 138/95/52
f 139/94/51 143/98/51 141/97/51 137/93/51
f 144/100/52 140/96/52 138/95/52 142/99/52
f 143/98/51 147/102/51 145/101/51 141/97/51
f 148/104/52 144/100/52 142/99/52 146/103/52
f 147/102/51 151/106/51 149/105/51 145/101/51
f 152/108/52 148/104/52 146/103/52 150/107/52
f 151/106/51 155/108/51 153/107/51 149/105/51
f 156/106/52 152/108/52 150/107/52 154/105/52
f 155/108/51 159/104/51 157/103/51 153/107/51
f 160/102/52 156/106/52 154/105/52 158/101/52
f 159/104/51 163/100/51 161/99/51 157/103/51
f 164/98/52 160/102/52 158/101/52 162/97/52
f 163/100/51 167/96/51 165/95/51 161/99/51
f 168/94/52 164/98/52 162/97/52 166/93/52
f 167/96/51 171/92/51 169/91/51 165/95/51
f 172/90/52 168/94/52 166/93/52 170/89/52
f 171/92/51 175/88/51 173/87/51 169/91/51
f 176/86/52 172/90/52 170/89/52 174/85/52
f 175/88/51 179/84/51 177/83/51 173/87/51
f 180/82/52 176/86/52 174/85/52 178/81/52
f 179/84/51 183/80/51 181/79/51 177/83/51
f 184/78/52 180/82/52 178/81/52 182/77/52
f 183/80/51 187/76/51 185/75/51 181/79/51
f 188/74/52 184/78/52 182/77/52 186/73/52
f 187/76/51 191/72/51 189/71/51 185/75/51
f 192/70/52 188/74/52 186/73/52 190/69/52
f 191/72/51 195/68/51 193/67/51 189/71/51
f 196/66/52 192/70/52 190/69/52 194/65/52
f 195/68/51 199/64/51 197/63/51 193/67/51
f 200/62/52 196/66/52 194/65/52 198/61/52
f 199/64/51 5/11/51 2/9/51 197/63/51
f 7/16/52 200/62/52 198/61/52 4/14/52

